REM MD5 fb5d1578e88854c2d1aea0e6197fe0a2
FILE "Himiko-den - Renge (Japan) (Disc 1).bin" BINARY
  TRACK 01 MODE2/2352
    INDEX 01 00:00:00
  TRACK 02 AUDIO
    INDEX 00 41:38:42
    INDEX 01 41:40:42
  TRACK 03 AUDIO
    INDEX 00 42:06:36
    INDEX 01 42:08:36
REM LEADOUT 47:38:34
